<svg xmlns="http://www.w3.org/2000/svg" version="1.1" xmlns:xlink="http://www.w3.org/1999/xlink" xmlns:svgjs="http://svgjs.dev/svgjs" width="1500" height="1687" viewBox="0 0 1500 1687"><g transform="matrix(1,0,0,1,0.0009843749999163265,0)"><svg viewBox="0 0 320 360" data-background-color="#ffffff" preserveAspectRatio="xMidYMid meet" height="1687" width="1500" xmlns="http://www.w3.org/2000/svg" xmlns:xlink="http://www.w3.org/1999/xlink"><g id="tight-bounds" transform="matrix(1,0,0,1,-0.00020999999998139174,0)"><svg viewBox="0 0 320 360" height="360" width="320"><g><svg></svg></g><g><svg viewBox="0 0 320 360" height="360" width="320"><g><path transform="translate(-17.77778,2.22222) scale(3.55556,3.55556)" d="M95 52c0-12.871-5.692-24.431-14.682-32.318-7.887-8.99-19.447-14.682-32.318-14.682-23.71 0-43 19.29-43 43 0 12.868 5.69 24.426 14.677 32.313 7.887 8.993 19.449 14.687 32.323 14.687 0.084 0 0.166-0.006 0.25-0.006 0.084 0 0.166 0.006 0.25 0.006 23.472 0 42.5-19.028 42.5-42.5 0-0.084-0.006-0.166-0.006-0.25 0-0.084 0.006-0.166 0.006-0.25zM21.828 73.371c-4.245-5.978-6.77-13.259-6.822-21.121 0.135-20.511 16.732-37.109 37.244-37.244 7.862 0.052 15.144 2.577 21.121 6.822 6.853 6.645 11.129 15.93 11.129 26.172 0 20.126-16.374 36.5-36.5 36.5-10.242 0-19.527-4.276-26.172-11.129zM6 48c0-23.159 18.841-42 42-42 9.858 0 18.926 3.422 26.1 9.13-6.463-3.888-14.024-6.13-22.1-6.13-23.71 0-43 19.29-43 43 0 8.074 2.241 15.633 6.127 22.095-5.706-7.172-9.127-16.239-9.127-26.095zM52 89c-10.08 0-19.227-4.055-25.905-10.615 6.174 4.469 13.743 7.115 21.905 7.115 20.678 0 37.5-16.822 37.5-37.5 0-8.162-2.646-15.731-7.115-21.905 6.56 6.678 10.615 15.825 10.615 25.905 0 20.402-16.598 37-37 37z" fill="#000000" fill-rule="nonzero" stroke="none" stroke-width="1" stroke-linecap="butt" stroke-linejoin="miter" stroke-miterlimit="10" stroke-dasharray="" stroke-dashoffset="0" font-family="none" font-weight="none" font-size="none" text-anchor="none" style="mix-blend-mode: normal" data-fill-palette-color="tertiary"></path></g><g transform="matrix(1,0,0,1,64.00000000000001,125.58068121171547)"><svg viewBox="0 0 191.99999999999997 108.83863757656904" height="108.83863757656904" width="191.99999999999997"><g><svg viewBox="0 0 191.99999999999997 108.83863757656904" height="108.83863757656904" width="191.99999999999997"><g transform="matrix(1,0,0,1,0,56.83529029623431)"><svg viewBox="0 0 191.99999999999997 52.00334728033473" height="52.00334728033473" width="191.99999999999997"><g id="textblocktransform"><svg viewBox="0 0 191.99999999999997 52.00334728033473" height="52.00334728033473" width="191.99999999999997" id="textblock"><g><svg viewBox="0 0 191.99999999999997 52.00334728033473" height="52.00334728033473" width="191.99999999999997"><g transform="matrix(1,0,0,1,0,0)"><svg width="191.99999999999997" viewBox="1.75 -37.7 179.23 48.550000000000004" height="52.00334728033473" data-palette-color="#000000"><path d="M15.25-35.25Q18.1-35.25 20.35-34.23 22.6-33.2 24.6-31.25L24.6-31.25 21.4-27.95Q19.85-29.3 18.5-29.88 17.15-30.45 15.45-30.45L15.45-30.45Q12.15-30.45 10.28-27.5 8.4-24.55 8.4-17.3L8.4-17.3Q8.4-12.2 9.08-9.33 9.75-6.45 11.08-5.3 12.4-4.15 14.55-4.15L14.55-4.15Q16.8-4.15 18.65-5.4L18.65-5.4 18.65-14.75 14.75-14.75 14.1-19.5 24.7-19.5 24.7-2.6Q22.55-1.05 19.93-0.18 17.3 0.7 14.6 0.7L14.6 0.7Q8.15 0.7 4.95-3.68 1.75-8.05 1.75-17.3L1.75-17.3Q1.75-23.3 3.53-27.33 5.3-31.35 8.35-33.3 11.4-35.25 15.25-35.25L15.25-35.25ZM39.15-27.15Q44.15-27.15 46.92-23.65 49.7-20.15 49.7-13.25L49.7-13.25Q49.7-6.65 46.9-2.95 44.1 0.75 39.15 0.75L39.15 0.75Q34.2 0.75 31.4-2.88 28.6-6.5 28.6-13.25L28.6-13.25Q28.6-19.95 31.4-23.55 34.2-27.15 39.15-27.15L39.15-27.15ZM39.15-22.5Q37-22.5 36-20.38 35-18.25 35-13.25L35-13.25Q35-8.2 36-6.08 37-3.95 39.15-3.95L39.15-3.95Q41.3-3.95 42.3-6.08 43.3-8.2 43.3-13.25L43.3-13.25Q43.3-18.3 42.3-20.4 41.3-22.5 39.15-22.5L39.15-22.5ZM67.2-37.7L73.34-37.05 73.34 0 67.9 0 67.59-3.05Q65.25 0.75 61.55 0.75L61.55 0.75Q57.45 0.75 55.27-2.93 53.1-6.6 53.1-13.2L53.1-13.2Q53.1-17.4 54.22-20.58 55.35-23.75 57.35-25.45 59.35-27.15 61.95-27.15L61.95-27.15Q65.15-27.15 67.2-24.5L67.2-24.5 67.2-37.7ZM63.3-3.9Q64.45-3.9 65.37-4.7 66.3-5.5 67.2-7L67.2-7 67.2-19.85Q65.59-22.55 63.55-22.55L63.55-22.55Q59.5-22.55 59.5-13.25L59.5-13.25Q59.5-8.2 60.5-6.05 61.5-3.9 63.3-3.9L63.3-3.9ZM83.29-21.05L79.24-21.05 78.54-34.55 83.99-34.55 83.29-21.05ZM96.54-27.15Q101.24-27.15 104.49-24.05L104.49-24.05 102.14-20.7Q100.74-21.7 99.49-22.2 98.24-22.7 96.94-22.7L96.94-22.7Q95.49-22.7 94.67-21.93 93.84-21.15 93.84-19.8L93.84-19.8Q93.84-18.45 94.77-17.63 95.69-16.8 98.49-15.7L98.49-15.7Q101.94-14.35 103.59-12.5 105.24-10.65 105.24-7.55L105.24-7.55Q105.24-3.7 102.54-1.48 99.84 0.75 95.69 0.75L95.69 0.75Q92.99 0.75 90.72-0.23 88.44-1.2 86.74-2.95L86.74-2.95 89.74-6.25Q92.54-3.8 95.44-3.8L95.44-3.8Q97.09-3.8 98.04-4.67 98.99-5.55 98.99-7.1L98.99-7.1Q98.99-8.25 98.59-8.97 98.19-9.7 97.19-10.33 96.19-10.95 94.19-11.7L94.19-11.7Q90.74-13.05 89.27-14.85 87.79-16.65 87.79-19.45L87.79-19.45Q87.79-22.8 90.17-24.98 92.54-27.15 96.54-27.15L96.54-27.15ZM119.09-34.55L136.24-34.55 135.59-29.8 125.44-29.8 125.44-19.9 134.29-19.9 134.29-15.2 125.44-15.2 125.44-4.8 136.24-4.8 136.24 0 119.09 0 119.09-34.55ZM159.23-26.45L152.23 0.1Q150.93 4.9 148.03 7.65 145.13 10.4 140.28 10.85L140.28 10.85 139.58 6.5Q142.73 5.85 144.31 4.42 145.88 3 146.78 0L146.78 0 144.48 0 137.78-26.45 144.03-26.45 148.43-4.1 153.13-26.45 159.23-26.45ZM180.98-13.85Q180.98-13.4 180.83-11.3L180.83-11.3 167.18-11.3Q167.38-7.2 168.61-5.58 169.83-3.95 172.08-3.95L172.08-3.95Q173.63-3.95 174.88-4.48 176.13-5 177.58-6.15L177.58-6.15 180.13-2.65Q176.63 0.75 171.73 0.75L171.73 0.75Q166.53 0.75 163.76-2.85 160.98-6.45 160.98-13L160.98-13Q160.98-19.55 163.63-23.35 166.28-27.15 171.13-27.15L171.13-27.15Q175.78-27.15 178.38-23.78 180.98-20.4 180.98-13.85L180.98-13.85ZM174.98-15.3L174.98-15.65Q174.98-19.4 174.08-21.13 173.18-22.85 171.18-22.85L171.18-22.85Q169.33-22.85 168.36-21.18 167.38-19.5 167.18-15.3L167.18-15.3 174.98-15.3Z" opacity="1" transform="matrix(1,0,0,1,0,0)" fill="#000000" class="wordmark-text-0" data-fill-palette-color="primary" id="text-0"></path></svg></g></svg></g></svg></g></svg></g><g transform="matrix(1,0,0,1,69.85061732178283,0)"><svg viewBox="0 0 52.298765356434295 44.55854808368201" height="44.55854808368201" width="52.298765356434295"><g><svg xmlns="http://www.w3.org/2000/svg" xmlns:xlink="http://www.w3.org/1999/xlink" version="1.1" x="0" y="0" viewBox="0 7.4 100 85.19999999999999" enable-background="new 0 0 100 100" xml:space="preserve" height="44.55854808368201" width="52.298765356434295" class="icon-icon-0" data-fill-palette-color="accent" id="icon-0"><path fill="#000000" d="M98.28 60.757c-8.314-11.633-19.59-24.044-48.306-24.044-31.361 0-42.371 15.66-48.286 24.072L0 63.188l1.52 2.512c3.819 6.311 18.929 26.9 52.991 26.9 28.285 0 37.785-16.316 42.889-25.084 0.376-0.645 0.731-1.254 1.072-1.821L100 63.162 98.28 60.757zM62.813 55.203c0 4.126-3.344 7.471-7.47 7.471-4.125 0-7.47-3.345-7.47-7.471 0-4.125 3.345-7.47 7.47-7.47C59.47 47.733 62.813 51.078 62.813 55.203zM54.511 83.606c-25.753 0-38.715-13.289-43.673-20.126 5.049-6.738 11.421-13.02 23.111-15.985-0.868 2.409-1.355 5.001-1.355 7.708 0 12.564 10.186 22.75 22.75 22.75s22.751-10.186 22.751-22.75c0-0.869-0.054-1.725-0.148-2.568 5.214 3.338 8.637 7.387 11.311 10.993C84.469 71.826 77.035 83.606 54.511 83.606z" data-fill-palette-color="accent"></path><path fill="#000000" d="M49.962 23.503c1.994 0 3.93 0.04 5.812 0.119V7.4H45.496v16.178C46.953 23.529 48.44 23.503 49.962 23.503z" data-fill-palette-color="accent"></path><path fill="#000000" d="M81.987 28.021l6.586-12.926-9.158-4.666-7.558 14.832 0.544 0.277C75.821 26.217 79.007 27.052 81.987 28.021z" data-fill-palette-color="accent"></path><path fill="#000000" d="M29.073 25.306l-9.021-11.87-8.184 6.221 6.36 8.367C21.565 26.948 25.173 26.028 29.073 25.306z" data-fill-palette-color="accent"></path></svg></g></svg></g><g></g></svg></g></svg></g></svg></g><defs></defs></svg><rect width="320" height="360" fill="none" stroke="none" visibility="hidden"></rect></g></svg></g></svg>